HIERARCHY
ROOT hip
{
	OFFSET 0.000000 0.000000 0.000000 
	CHANNELS 6 Xposition Yposition Zposition Xrotation Zrotation Yrotation
	JOINT abdomen
	{
		OFFSET 0.000000 3.402643 0.000000 
		CHANNELS 3 Xrotation Zrotation Yrotation
		JOINT chest
		{
			OFFSET 0.000000 8.438565 -0.680529 
			CHANNELS 3 Xrotation Zrotation Yrotation
			JOINT neck
			{
				OFFSET 0.000000 10.207942 -0.272212 
				CHANNELS 3 Xrotation Zrotation Yrotation
				JOINT head
				{
					OFFSET 0.000000 3.130431 0.000000 
					CHANNELS 3 Xrotation Zrotation Yrotation
					End Site
					{
						OFFSET 0.000000 3.130435 0.000000 
					}
				}
			}
			JOINT lCollar
			{
				OFFSET 3.470700 6.669187 -0.816635 
				CHANNELS 3 Yrotation Zrotation Xrotation
				JOINT lShldr
				{
					OFFSET 3.198488 0.000000 0.000000 
					CHANNELS 3 Zrotation Yrotation Xrotation
					JOINT lForeArm
					{
						OFFSET 10.139888 0.000000 0.000000 
						CHANNELS 3 Yrotation Zrotation Xrotation
						JOINT lHand
						{
							OFFSET 8.370511 0.000000 0.000000 
							CHANNELS 3 Zrotation Yrotation Xrotation
							End Site
							{
								OFFSET 4.083176 0.000000 0.000000 
							}
						}
					}
				}
			}
			JOINT rCollar
			{
				OFFSET -3.470700 6.669187 -0.816635 
				CHANNELS 3 Yrotation Zrotation Xrotation
				JOINT rShldr
				{
					OFFSET -3.198488 0.000000 0.000000 
					CHANNELS 3 Zrotation Yrotation Xrotation
					JOINT rForeArm
					{
						OFFSET -10.139888 0.000000 0.000000 
						CHANNELS 3 Yrotation Zrotation Xrotation
						JOINT rHand
						{
							OFFSET -8.370511 0.000000 0.000000 
							CHANNELS 3 Zrotation Yrotation Xrotation
							End Site
							{
								OFFSET -4.083176 0.000000 0.000000 
							}
						}
					}
				}
			}
		}
	}
	JOINT lThigh
	{
		OFFSET 5.308129 -1.633274 1.361059 
		CHANNELS 3 Xrotation Zrotation Yrotation
		JOINT lShin
		{
			OFFSET -2.041588 -20.007561 0.000000 
			CHANNELS 3 Xrotation Zrotation Yrotation
			JOINT lFoot
			{
				OFFSET 0.000000 -19.190928 -1.224953 
				CHANNELS 3 Xrotation Yrotation Zrotation
				End Site
				{
					OFFSET 0.000000 -2.449906 4.627600 
				}
			}
		}
	}
	JOINT rThigh
	{
		OFFSET -5.308129 -1.633274 1.361059 
		CHANNELS 3 Xrotation Zrotation Yrotation
		JOINT rShin
		{
			OFFSET 2.041588 -20.007561 0.000000 
			CHANNELS 3 Xrotation Zrotation Yrotation
			JOINT rFoot
			{
				OFFSET 0.000000 -19.190928 -1.224953 
				CHANNELS 3 Xrotation Yrotation Zrotation
				End Site
				{
					OFFSET 0.000000 -2.449906 4.627600 
				}
			}
		}
	}
}
MOTION
Frames: 13
Frame Time: 0.033333
-70.965698 52.021652 82.012314 1.572266 4.541016 -39.589066 24.479118 -15.278727 -3.214978 -14.150391 14.970702 9.960938 51.063168 8.107644 2.471410 -45.029297 5.468750 -24.608444 2.000000 -2.000000 0.000000 -74.990234 -8.886719 38.230911 -23.384502 -9.559816 -26.013374 -25.931538 39.336403 -21.333052 -2.000000 2.000000 0.000000 73.037109 6.962891 52.960167 25.808270 -5.554837 -45.857403 -14.206842 -52.507603 17.554720 -15.647326 0.155593 0.361066 13.319147 -5.653898 -1.345944 7.433321 12.551285 -3.771008 2.408729 -6.469115 -18.832766 28.513580 4.469007 2.364590 3.856344 -8.658982 -8.085172 
-71.154900 52.099667 82.762512 1.572266 4.365234 -39.247307 24.456245 -15.367647 -3.063254 -13.964844 14.960938 10.197834 51.063168 8.107644 2.471410 -44.453129 4.023438 -22.949221 2.000000 -2.000000 0.000000 -75.048828 -8.857422 38.426235 -23.384502 -9.559816 -26.013374 -26.230526 39.530483 -21.249289 -2.000000 2.000000 0.000000 73.115234 6.894531 53.184769 25.808270 -5.554837 -45.857403 -14.155568 -52.887817 17.391987 -15.002171 -0.215268 0.369859 13.856474 -5.595477 -1.543014 6.871684 12.664592 -3.987831 2.437666 -7.317070 -19.247875 29.737576 4.409479 2.440354 7.358205 -7.205521 -9.177911 
-71.355209 52.224155 83.431816 1.572266 4.189453 -38.729759 24.591421 -15.292834 -2.844699 -13.808594 14.775393 10.178270 51.063168 8.107644 2.471410 -44.189457 2.949219 -21.445314 2.000000 -2.000000 0.000000 -75.087891 -8.857423 38.621548 -23.384502 -9.559816 -26.013374 -26.740891 39.789352 -21.241917 -2.000000 2.000000 0.000000 73.115234 6.787110 53.008965 25.808270 -5.554837 -45.857403 -14.155568 -52.887817 17.391987 -14.040613 -0.361559 0.365723 14.197808 -5.234092 -1.680784 6.223624 12.027962 -3.976976 2.440063 -7.948167 -19.277983 30.620817 4.370979 2.511675 10.652328 -5.702557 -10.387590 
-71.555519 52.285915 84.094200 1.572266 3.857422 -38.378250 24.942631 -15.285986 -2.862985 -13.623048 14.755860 10.234375 51.063168 8.107644 2.471410 -43.886723 2.382812 -20.429688 2.000000 -2.000000 0.000000 -75.185547 -8.662110 38.857422 -23.384502 -9.559816 -26.013374 -26.357178 40.003143 -20.593130 -2.000000 2.000000 0.000000 73.056641 6.904297 52.949215 25.808270 -5.554837 -45.857403 -13.990664 -52.729126 17.091492 -13.444113 -0.517962 0.008102 14.547951 -5.214046 -1.708317 5.556096 12.040284 -3.828555 0.536866 -9.413514 -19.432461 33.619282 4.214838 2.886865 19.220406 -4.158778 -11.953245 
-71.774910 52.323463 84.783287 1.572266 3.496094 -37.871098 25.102619 -15.349882 -2.720116 -13.437500 14.736329 10.275922 51.063168 8.107644 2.471410 -43.554688 2.177748 -20.097778 2.000000 -2.000000 0.000000 -75.234375 -8.662109 39.052738 -23.384502 -9.559816 -26.013374 -26.676582 39.767963 -20.971159 -2.000000 2.000000 0.000000 73.007813 6.904297 52.753910 25.808270 -5.554837 -45.857403 -14.079857 -52.525280 17.293633 -12.647842 -0.693121 -0.356209 14.730736 -5.222677 -1.754138 4.342957 11.942019 -3.678699 -1.564036 -11.046474 -19.688360 35.722816 4.087192 2.883484 32.130455 -2.285653 -14.341574 
-72.001503 52.378254 85.476196 1.572266 3.154297 -37.373051 25.453676 -15.339606 -2.747546 -13.105469 14.541015 10.312501 51.063168 8.107644 2.471410 -43.212891 2.138672 -19.911743 2.000000 -2.000000 0.000000 -75.283203 -8.642578 39.248047 -23.384502 -9.559816 -26.013374 -26.937366 39.589806 -21.341702 -2.000000 2.000000 0.000000 72.939453 7.070312 52.716049 25.808270 -5.554837 -45.857403 -13.566955 -52.254208 16.617022 -11.729144 -0.673840 -0.536223 15.082666 -5.191107 -1.789984 3.087486 12.057520 -3.368387 -2.207909 -11.830619 -20.178967 35.551147 4.106746 2.671545 42.631176 -0.993075 -17.934532 
-72.248894 52.403347 86.147156 1.757813 2.617188 -36.825726 25.814491 -15.329331 -2.774978 -12.919922 14.531251 10.363778 51.063168 8.107644 2.471410 -42.841797 2.294922 -19.697266 2.000000 -2.000000 0.000000 -75.292969 -8.593751 39.275887 -23.384502 -9.559816 -26.013374 -27.006462 39.513626 -21.358559 -2.000000 2.000000 0.000000 72.968750 7.021484 52.753906 25.808270 -5.554837 -45.857403 -13.790587 -51.827564 16.824217 -10.842004 -0.576006 -1.106122 15.255583 -5.231926 -1.790040 1.849833 11.772662 -3.334380 -4.043132 -12.602766 -21.413399 40.291615 3.833691 3.166934 41.570389 -6.427360 -14.222492 
-72.495949 52.437714 86.803368 1.757813 2.275391 -36.337891 25.967567 -15.420522 -2.644974 -12.744140 14.501955 10.412601 51.063168 8.107644 2.471410 -42.451168 2.607422 -19.628462 2.000000 -2.000000 0.000000 -75.292969 -8.593751 39.275887 -23.384502 -9.559816 -26.013374 -26.910814 39.559719 -21.137774 -2.000000 2.000000 0.000000 72.968750 7.021484 52.753906 25.808270 -5.554837 -45.857403 -13.285518 -51.547012 16.168802 -9.997266 -0.761773 -1.293828 15.085501 -5.214372 -1.782879 1.343348 11.674470 -2.865031 -6.493684 -13.107057 -22.923014 46.770008 3.515161 3.604206 30.350855 -17.897490 -3.186110 
-72.768593 52.441559 87.445724 1.933594 1.914063 -35.791016 26.290710 -15.244246 -2.583870 -12.548827 14.492188 10.451663 51.063168 8.107644 2.471410 -42.236332 2.929687 -19.746096 2.000000 -2.000000 0.000000 -75.263672 -8.564453 39.100109 -23.384502 -9.559816 -26.013374 -26.918503 39.784706 -21.013575 -2.000000 2.000000 0.000000 72.968750 7.021484 52.753906 25.808270 -5.554837 -45.857403 -13.216766 -51.184658 16.069939 -9.120549 -0.566061 -1.327851 15.609602 -5.170837 -2.338103 -0.308335 11.735959 -2.730003 -8.144423 -14.391766 -25.377909 51.159672 3.075922 3.935909 21.452017 -26.196726 3.084093 
-73.050583 52.478188 88.059715 1.933594 1.572266 -35.458981 26.650427 -15.221447 -2.617018 -12.216798 14.287110 10.488280 51.063168 8.107644 2.471410 -41.865238 3.261719 -19.863283 2.000000 -2.000000 0.000000 -75.166016 -8.750000 38.865704 -23.384502 -9.559816 -26.013374 -27.055948 39.837559 -20.825819 -2.000000 2.000000 0.000000 72.968750 7.021484 52.753906 25.808270 -5.554837 -45.857403 -13.177896 -50.998539 16.020660 -8.386503 -0.556510 -2.068339 15.433770 -5.222769 -1.813569 -0.591867 11.580620 -2.774221 -8.369154 -16.332624 -26.880713 51.875469 3.022336 3.977286 18.570024 -25.748405 4.728848 
-73.363960 52.499172 88.673592 2.109375 1.201172 -34.931435 26.986919 -15.294454 -2.477574 -12.031251 14.277344 10.527343 51.063168 8.107644 2.471410 -41.464844 3.730468 -19.902346 2.000000 -2.000000 0.000000 -75.185547 -8.710938 38.886719 -23.384502 -9.559816 -26.013374 -27.209951 39.744320 -21.054108 -2.000000 2.000000 0.000000 72.919922 7.021485 52.558594 25.808270 -5.554837 -45.857403 -13.266715 -50.784859 15.929693 -7.521446 -0.361225 -2.410049 15.608868 -5.190466 -1.834354 -1.712808 11.288395 -2.302199 -7.520284 -19.030355 -28.690483 50.493404 3.126971 3.877896 17.445839 -21.222059 4.665585 
-73.693756 52.528023 89.267693 2.109375 0.849612 -34.433514 27.173126 -15.296699 -2.499285 -11.855470 14.267578 10.576171 51.063168 8.107644 2.471410 -41.083988 4.062500 -20.000002 2.000000 -2.000000 0.000000 -75.185547 -8.710938 38.886719 -23.384502 -9.559816 -26.013374 -27.435083 39.535927 -21.221136 -2.000000 2.000000 0.000000 72.841797 7.089844 52.333981 25.808270 -5.554837 -45.857403 -13.725879 -50.869366 16.350668 -6.653222 -0.126545 -2.837338 15.787576 -5.213699 -1.822751 -2.371482 11.196236 -2.659949 -7.618031 -19.740252 -29.538536 47.857506 3.304794 3.622388 16.099337 -17.969795 4.126819 
-74.055824 52.556366 89.830887 2.265625 0.498047 -33.915974 27.523254 -15.277323 -2.523291 -11.669922 14.238281 10.625000 51.063168 8.107644 2.471410 -40.869141 4.384766 -20.106676 2.000000 -2.000000 0.000000 -75.185547 -8.710938 38.886719 -23.384502 -9.559816 -26.013374 -27.834736 39.391396 -21.404018 -2.000000 2.000000 0.000000 72.724609 7.255858 52.100842 25.808270 -5.554837 -45.857403 -13.725879 -50.869366 16.350668 -5.953474 0.058664 -2.829161 16.150806 -5.145985 -2.399676 -3.677637 10.805019 -2.239255 -8.692070 -19.096087 -29.562798 44.319462 3.548893 3.422404 13.591527 -17.251139 3.845014 
